<svg xmlns="http://www.w3.org/2000/svg" pointer-events="none" class="leaflet-zoom-animated" width="1140" height="632" viewBox="-46 -315 1140 632" style="transform: translate3d(-46px, -315px, 0px);"><g><path class="leaflet-interactive" stroke="#201920" stroke-opacity="1" stroke-width="2" stroke-linecap="round" stroke-linejoin="round" fill="none" d="M352 -29L350 -33L353 -36L352 -37L356 -41L358 -41L358 -43L359 -42L362 -44L363 -41L367 -41L370 -47L375 -46L375 -48L376 -47L382 -52L389 -55L389 -62L392 -63L389 -75L386 -76L391 -79L392 -78L396 -80L402 -80L400 -84L405 -96L410 -93L419 -94L419 -104L426 -108L426 -112L432 -112L431 -109L433 -109L433 -107L435 -105L436 -106L437 -103L444 -101L447 -98L450 -91L448 -81L451 -78L452 -79L457 -77L465 -77L472 -71L475 -72L474 -71L480 -59L506 -59L522 -52L526 -53L527 -51L542 -57L554 -57L559 -59L569 -68L566 -71L567 -76L569 -78L578 -75L585 -81L588 -80L591 -82L595 -88L599 -88L605 -92L609 -92L608 -91L609 -92L611 -90L614 -91L613 -96L607 -102L604 -103L600 -99L598 -101L594 -101L592 -99L589 -103L591 -104L596 -118L602 -115L606 -119L611 -120L611 -126L615 -134L619 -138L619 -142L615 -144L620 -150L621 -149L628 -152L636 -152L642 -148L645 -149L649 -145L651 -141L650 -140L652 -138L651 -137L654 -132L653 -131L657 -125L656 -122L658 -122L657 -119L659 -116L664 -116L672 -110L674 -110L676 -106L675 -103L678 -99L682 -99L694 -105L700 -106L698 -104L698 -98L695 -97L696 -95L694 -87L691 -84L689 -78L688 -77L682 -80L678 -76L678 -61L676 -61L674 -59L675 -58L671 -62L670 -57L668 -57L665 -54L661 -54L662 -51L660 -49L655 -50L656 -51L653 -52L652 -49L647 -44L645 -44L646 -43L645 -44L640 -40M380 18L378 14L379 13L381 15L383 13L383 11L380 8L380 4L382 2L377 0L377 -6L371 -6L368 -9L366 -9L364 -11L364 -15L356 -17L356 -19L358 -18M540 82L538 80L539 77L534 76L531 73L523 79L521 77L518 79L516 77L514 77L514 79L510 79L510 87L508 87L507 83L503 85L501 81L497 81L496 80L498 76L495 75L493 71L493 69L495 69L487 69L488 62L492 58L494 58L494 48L492 46L491 47L490 42L487 41L484 46L480 42L476 42L464 51L456 51L455 47L453 47L452 44L449 45L450 44L441 43L439 49L437 47L438 44L427 45L425 43L422 44L423 43L421 45L420 42L416 42L417 40L412 39L410 35L407 36L397 28L395 28L394 31L385 24L381 24L380 18M546 84L540 82M548 176L548 170M554 117L557 123M560 140L558 146M568 191L574 189M589 169L593 164M606 148L609 141M609 118L609 125M615 100L612 106M626 84L621 89M629 73L631 65" id="国界"/><path class="leaflet-interactive" stroke="#201920" stroke-opacity="1" stroke-width="2" stroke-linecap="butt" stroke-linejoin="round" stroke-dasharray="4,4" stroke-dashoffset="4" fill="none" d="M358 -18L360 -20L358 -22L358 -28L352 -29" id="争议"/><path class="leaflet-interactive" stroke="gray" stroke-opacity="1" stroke-width="1" stroke-linecap="round" stroke-linejoin="round" stroke-dasharray="8,4,4,4" fill="none" d="M578 80L578 80M582 78L580 80L582 81L582 78" id="港澳"/><path class="leaflet-interactive" stroke="#4190da" stroke-opacity="1" stroke-width="1" stroke-linecap="round" stroke-linejoin="round" fill="none" d="M581 79L579 77L579 79L576 82L575 81L575 83L569 83L567 85L559 87L561 91L559 93L557 93L556 84L546 84M560 87L560 87M560 87L561 88L559 88L560 87M578 80L578 80M581 79L581 79M581 79L581 79M581 79L581 79M614 52L612 56L612 60L614 60L610 60L611 61L609 61L609 63L606 66L604 66L604 68L600 72L598 72L593 77L590 76L590 78L585 77L583 78L584 79L582 79L583 80L581 79M614 52L614 52M625 37L624 36L624 42L622 44L621 43L621 45L618 47L619 48L614 52M623 -15L620 -14L618 -10L615 -11L616 -10L610 -2L617 3L620 10L620 14L622 14L623 17L625 17L626 20L620 19L622 21M622 21L625 22L627 27L621 27L626 32L626 36M623 -15L623 -15M623 -15L623 -15M628 -34L621 -29L621 -31L624 -32L622 -36L627 -41L625 -45L621 -45L618 -42L618 -40L612 -38L611 -35L608 -32L609 -33L606 -32L607 -31L603 -33L601 -29L601 -27L603 -27L606 -24L609 -25L611 -23L609 -21L610 -18L614 -18L614 -20L618 -23L620 -23L623 -20L626 -21L630 -19L629 -16L626 -17L623 -15M623 -15L624 -16L623 -15M625 37L625 37M625 37L625 37M625 37L625 37M626 36L625 37M626 36L626 36M627 31L627 31M627 31L627 31M627 31L627 31M628 31L627 31M627 31L626 30L628 31M628 31L628 31M628 29L628 29M628 29L628 29M628 -34L628 -34M640 -40L637 -37L633 -37L628 -34M629 26L629 26M629 26L629 26M630 26L630 26M551 84L551 84M553 88L553 88M555 94L555 94M555 168L558 167L555 168M555 105L550 102L550 98L554 94L555 95L561 93L564 95L561 101L555 105M557 165L557 165M560 90L560 90M560 87L560 87M560 165L561 166L560 165M560 164L561 163L560 164M561 87L561 87M561 92L561 92M561 164L561 164M561 88L561 88M565 119L565 119M566 111L566 111M566 161L566 161M566 115L566 115M566 157L566 157M567 167L567 167M567 165L567 165M567 115L567 115M567 115L567 115M567 165L567 165M567 116L567 116M567 160L568 161L567 160M567 114L567 114M567 166L567 166M567 114L567 114M568 117L567 116L568 117M568 115L568 115M568 117L568 117M569 164L569 164M569 116L569 116M569 188L569 188M570 160L571 159L570 160M570 159L570 159M570 188L570 188M570 113L570 113M570 120L571 119L570 120M570 112L570 112M571 159L571 159M571 188L571 188M571 159L571 159M571 178L571 178M571 112L571 112M571 113L571 113M571 116L571 116M572 84L572 84M572 177L572 177M572 118L573 117L572 118M572 115L572 115M572 155L572 155M572 178L572 178M572 177L572 177M572 159L573 160L572 159M572 176L572 176M572 181L572 181M572 84L572 84M572 178L573 179L572 178M573 179L573 179M573 115L573 115M573 181L573 181M573 83L572 84L573 83M573 116L573 116M573 114L573 114M574 84L573 83L574 84M574 159L574 159M574 84L574 84M574 113L574 113M574 165L574 165M574 155L574 155M574 155L574 155M574 182L575 181L574 182M575 162L575 162M575 97L575 97M575 155L575 155M575 83L575 83M576 82L576 82M576 83L576 83M576 82L576 82M576 174L576 174M576 164L576 164M576 164L577 163L576 164M578 81L578 81M578 151L578 151M578 170L578 170M578 159L579 158L578 159M579 157L579 157M579 82L579 82M579 120L579 120M579 82L579 82M579 82L579 82M579 82L579 82M579 166L580 167L579 166M579 168L579 168M580 79L580 79M580 81L580 81M580 99L580 99M580 80L580 80M580 153L580 153M580 121L580 121M580 120L580 120M580 164L580 164M580 167L584 165L580 167M580 159L580 159M580 119L580 119M580 159L581 160L580 159M580 159L581 160L580 159M580 121L580 121M581 153L581 153M581 148L581 148M581 164L581 164M581 118L581 118M581 80L581 80M581 82L581 82M581 156L582 157L581 156M582 80L582 80M582 82L582 82M582 160L582 160M582 118L582 118M582 82L582 82M582 121L582 121M582 151L582 151M582 154L582 154M582 81L582 81M582 120L582 120M582 154L582 154M582 145L582 145M582 78L582 78M582 147L582 147M582 80L582 80M583 152L583 152M583 149L583 149M583 144L583 144M583 118L584 117L583 118M583 153L583 153M583 120L583 120M583 154L583 154M583 148L583 148M583 149L584 148L583 149M583 153L583 153M583 164L584 163L583 164M584 153L584 153M584 153L584 153M584 145L584 145M584 153L584 153M584 159L584 159M584 120L584 120M584 153L584 153M584 145L584 145M584 79L584 79M584 167L584 167M584 163L584 163M584 151L584 151M584 144L585 145L584 144M585 147L585 147M585 117L585 117M585 154L584 155L585 154M585 163L585 163M585 146L585 146M585 118L585 118M585 148L585 148M585 169L585 169M585 164L586 165L585 164M586 148L586 148M586 118L586 118M586 167L586 167M586 147L586 147M587 162L588 163L587 162M588 161L588 161M588 152L588 152M588 130L588 130M589 156L589 156M589 153L589 153M589 162L589 162M590 150L590 150M590 150L590 150M590 150L590 150M591 150L591 150M591 150L591 150M591 154L591 154M591 148L591 148M591 88L591 88M592 87L592 87M592 157L592 157M592 152L592 152M593 155L593 155M593 159L593 159M594 154L594 154M595 158L595 158M595 154L595 154M595 151L595 151M595 154L595 154M596 150L596 150M596 116L596 116M596 144L596 144M596 90L596 90M596 158L596 158M596 89L597 90L596 89M597 150L597 150M598 73L598 73M599 149L599 149M599 149L599 149M599 151L599 151M599 149L599 149M599 147L599 147M600 152L600 152M600 147L600 147M601 149L601 149M602 147L602 147M602 123L602 123M602 148L602 148M604 67L604 67M604 67L604 67M605 67L605 67M606 66L605 67L606 66M607 -32L607 -32M608 -32L608 -32M608 -32L608 -32M611 74L611 74M612 62L612 62M612 73L612 73M612 72L612 72M612 71L612 71M612 59L612 59M613 56L613 56M613 72L613 72M613 59L613 59M613 59L613 59M613 53L613 53M613 61L613 61M613 61L613 61M613 53L613 53M614 59L614 59M614 56L614 56M614 57L614 57M615 73L615 73M615 55L615 55M615 54L615 54M615 53L615 53M615 53L615 53M615 52L615 52M616 -8L616 -8M616 51L616 51M617 80L617 80M617 51L617 51M617 -22L617 -22M617 54L617 54M618 -24L618 -24M619 82L616 78L615 71L620 65L620 63L624 61L626 63L622 77L619 82M619 -24L619 -24M619 -24L619 -24M619 -25L619 -25M619 -42L619 -42M619 -26L619 -26M620 -27L620 -27M620 -27L620 -27M620 -13L620 -13M621 44L621 44M621 48L621 48M621 44L621 44M621 44L621 44M623 19L626 21L624 21L623 19M623 14L623 14M623 77L623 77M623 81L624 82L623 81M624 82L624 82M624 21L624 21M624 37L624 37M625 39L625 39M625 22L624 21L625 22M625 22L627 22L625 22M625 31L625 31M625 39L625 39M625 39L625 39M625 41L625 41M625 30L626 31L625 30M625 23L625 23M625 41L625 41M626 60L626 60M626 64L626 64M626 30L626 30M626 23L626 23M626 29L626 29M626 36L626 36M626 33L626 33M626 31L626 31M626 30L626 30M626 27L626 27M627 31L627 31M627 31L627 31M627 31L627 31M627 31L627 31M627 30L627 30M627 29L627 29M627 29L627 29M627 35L627 35M627 33L626 32L627 33M627 33L627 33M627 31L627 31M628 32L628 32M628 32L628 32M628 33L627 32L628 33M628 31L629 32L628 31M628 -33L628 -33M628 31L628 31M628 28L628 28M629 28L629 28M629 -33L629 -33M629 -33L629 -33M629 27L629 27M630 -33L630 -33M630 30L630 30M630 -31L630 -31M630 26L630 26M631 26L631 26M632 -35L632 -35M632 -34L632 -34M633 -31L633 -31M634 58L635 59L633 59L634 58M635 58L635 58M635 57L636 58L635 57M635 59L635 59M635 58L635 58M635 59L635 59M636 -37L636 -37M640 57L641 58L640 57" id="海洋"/><path class="leaflet-interactive" stroke="#747569" stroke-opacity="0.6" stroke-width="1" stroke-linecap="round" stroke-linejoin="round" fill="none" d="M442 -10L440 -12L429 -13L423 -11L419 -7L416 -8L411 -5L404 -6L404 -8L396 -4L390 -6L387 -3L387 -1L385 1L381 1L382 2M488 14L486 14L486 16L482 18L482 20L480 18L480 20L477 20L475 16L474 17L474 15L470 13L466 15L455 12L453 10L447 10L443 6L444 5L442 5L442 -10M458 -32L445 -28L445 -26L447 -26L447 -22L451 -19L451 -17L448 -16L448 -14L450 -14L450 -10L444 -12L444 -10L442 -10M511 7L510 8L510 6L509 7L505 3L513 3L514 2L512 -2L518 -10L515 -17L516 -18L512 -22L507 -23L502 -28L502 -26L499 -27L494 -32L490 -30L485 -33L483 -31L484 -28L482 -28L482 -26L479 -25L477 -27L471 -27L469 -30L467 -29L461 -33L458 -32M480 -59L478 -57L479 -53L477 -53L474 -50L474 -52L472 -52L465 -44L461 -43L457 -33L458 -32M525 -20L520 -23L520 -27L525 -31L523 -35L518 -32L513 -33L513 -31L509 -29L506 -32L506 -34L498 -38L502 -41L501 -45L499 -46L494 -43L491 -43L491 -46L487 -49L489 -51L485 -60M496 36L495 26L493 23L494 22L492 20L491 15L488 14M511 7L510 10L507 9L508 12L506 14L502 14L501 11L499 13L496 10L494 10L492 4L489 3L486 6L488 8L486 12L488 14M490 43L494 42L493 39L495 39L496 36M531 46L530 43L526 45L525 40L523 40L523 42L520 43L521 46L517 48L518 55L515 54L511 56L505 44L503 46L501 44L502 43L500 39L498 39L497 42L496 41L496 36M532 12L530 14L527 13L525 11L525 7L521 5L520 6L518 2L516 2L516 4L513 5L515 7L512 10L511 7M544 -23L538 -27L541 -32L539 -34L534 -30L533 -22L525 -20M525 -20L527 -20L527 -18L528 -19L531 -16L531 -8L532 -9L537 -4L537 -8L540 -9L540 -11L537 -14L539 -16L538 -17L542 -18M531 46L531 48L526 47L521 50L522 53L527 54L525 58L528 61L527 65M527 65L527 67L528 66L531 69L532 68L536 70L536 72L532 74M555 57L552 58L552 60L551 59L546 62L544 62L541 59L541 61L535 65L532 63L527 65M537 41L535 39L533 41L537 44L535 46L531 46M542 -18L542 -16L550 -12L550 -6L546 -4L545 -5L544 -2L539 -3L537 1L539 1L537 5L538 6L535 7L535 11L532 12M549 16L546 17L543 14L542 15L540 13L537 14L535 12L532 12M554 41L552 43L548 39L548 37L545 38L545 36L543 36L543 38L541 38L538 41L538 39L537 41M537 41L537 39L531 35L531 33L534 32L532 30L534 28L536 30L539 29L539 31L541 30L544 27L543 26L547 24L549 16M542 -18L544 -23M564 -34L564 -36L561 -33L559 -35L559 -33L557 -33L556 -30L552 -27L553 -24L551 -24L551 -22L548 -21L544 -23M549 16L555 20M555 20L558 21L559 24L554 28L551 27L548 32L550 32L552 34L551 35L553 35L553 37M553 37L554 41M580 37L578 33L575 35L574 32L572 34L568 31L567 32L563 30L560 33L557 32L553 37M555 57L554 49L551 50L555 46L554 41M569 65L567 65L566 62L564 64L563 63L566 58L565 55L563 55L564 54L559 57L555 57M563 9L555 9L557 11L556 12L559 13L555 15L555 20M557 85L556 85M557 85L556 84L566 76L566 72L569 69L569 65M557 93L558 93M558 93L560 93M560 0L560 -16L562 -20L561 -25L563 -27L563 -31L565 -33L564 -34M560 0L561 4L564 7L563 9M560 0L569 -3L569 -5L574 -4L578 -6L579 -12M560 92L561 92M588 22L581 19L579 15L569 15L563 9M564 10L564 10M581 -44L578 -41L572 -41L569 -38L569 -36L564 -34M569 65L570 62L574 64L576 60L580 60M589 -11L586 -10L579 -12M579 -12L578 -15L581 -22L578 -29L581 -32L583 -32L584 -35L583 -38L580 -39L583 -41L581 -44M593 32L589 32L585 34L586 35L582 35L580 37M580 60L582 56L580 56L580 48L578 48L578 46L582 42L580 37M580 60L585 61L581 65L582 66L586 66L588 64L590 66L591 63M610 -49L609 -48L604 -51L605 -54L602 -59L598 -57L596 -53L590 -53L587 -50L584 -55L580 -49L581 -44M593 0L593 2L595 2L596 5L593 6L589 4L590 7L588 7L586 11L587 14L591 14L592 17L588 22M593 32L591 28L592 25L588 22M603 -26L600 -23L596 -23L593 -19L592 -20L592 -18L588 -14L589 -11M593 0L589 0L589 -2L585 -4L592 -10L588 -8L589 -11M591 63L593 57L596 54L595 51L599 49L598 46L606 42M599 72L597 70L597 66L591 63M604 35L599 32L597 34L595 30L595 32L593 32M594 0L593 0M611 -3L610 -4L604 2L603 -1L599 1L597 -3L594 -2L594 0M613 23L609 23L605 17L608 14L609 15L610 12L609 11L605 13L604 9L603 10L604 7L594 0M600 -40L600 -44L598 -44L595 -47L595 -45L594 -46L595 -45L593 -45L593 -43L590 -42L591 -41L589 -37L591 -35L597 -36M601 -29L598 -28L596 -30L597 -36M597 -36L597 -36M597 -36L599 -36L599 -39M599 -39L596 -38L597 -36M599 72L599 73M600 -40L599 -39M600 73L600 74M600 -40L602 -38L600 -38L602 -35L603 -36L603 -33M604 35L608 33L608 29L610 29L611 26L612 27L613 23M604 35L603 36L606 39L606 42M617 50L617 48L613 48L613 46L611 48L608 47L608 43L606 42M610 -49L610 -55L612 -57L615 -52L623 -58L624 -57L626 -59L633 -60L636 -64M614 -39L612 -43L608 -45L610 -49M620 24L618 26L613 23M619 50L619 50M619 -27L621 -27M626 20L621 19L622 20L620 24M622 26L620 26L620 24M622 26L623 26M634 -93L632 -91L628 -97L631 -100L633 -100L633 -102L635 -102L639 -107L639 -105L641 -105L640 -106L642 -112L645 -113L644 -118L648 -124L649 -129L645 -134L643 -134L644 -133L641 -131L633 -131L630 -135L631 -140L627 -142L625 -140L622 -143L625 -148L623 -150M624 26L624 26M625 26L626 26M626 26L627 25M628 25L629 25M630 25L630 25M679 -65L674 -66L674 -70L666 -66L663 -69L663 -73L661 -73L660 -70L657 -73L658 -74L654 -76L655 -77L653 -79L650 -78L647 -81L639 -81L637 -84L637 -88L633 -87M633 -87L632 -90L635 -91L634 -93M633 -87L630 -84L631 -83L629 -85L624 -84L627 -81L627 -73L629 -71L633 -73L632 -72L636 -64M634 -93L633 -94L634 -93M634 -93L634 -93M634 -93L634 -93M636 -64L637 -65L640 -62L640 -60L642 -62L646 -54L645 -51L647 -49L647 -45M534 -6L534 -6M555 52L555 52M574 32L574 32" id="省界"/><path class="leaflet-interactive" stroke="#3388ff" stroke-opacity="0" stroke-width="3" stroke-linecap="round" stroke-linejoin="round" fill="#eee" fill-opacity="0.5" fill-rule="evenodd" d="M600 -43L601 -44L597 -44L596 -47L594 -45L595 -44L590 -42L591 -41L589 -37L591 -35L595 -35L597 -37L596 -38L600 -40L600 -43z" id="北京市"/><path class="leaflet-interactive" stroke="#3388ff" stroke-opacity="0" stroke-width="3" stroke-linecap="round" stroke-linejoin="round" fill="#eee" fill-opacity="0.5" fill-rule="evenodd" d="M602 -34L603 -35L600 -38L602 -38L600 -40L598 -38L599 -37L596 -35L596 -29L601 -28L601 -30L603 -31L602 -34zM602 -34L602 -34z" id="天津市"/><path class="leaflet-interactive" stroke="#3388ff" stroke-opacity="0" stroke-width="3" stroke-linecap="round" stroke-linejoin="round" fill="#eee" fill-opacity="0.5" fill-rule="evenodd" d="M600 -44L599 -41L602 -38L600 -38L605 -31L607 -31L606 -32L608 -32L614 -39L612 -43L608 -45L610 -49L609 -48L604 -51L605 -54L602 -59L598 -57L596 -53L590 -53L587 -50L584 -55L582 -53L580 -47L582 -41L584 -41L581 -39L580 -40L583 -37L583 -35L584 -36L583 -33L579 -31L580 -30L578 -26L581 -23L581 -21L579 -15L577 -15L580 -12L588 -10L588 -14L592 -19L603 -26L601 -28L596 -29L597 -36L589 -36L589 -38L592 -41L591 -42L595 -44L594 -45L596 -47L597 -44L600 -44zM599 -39L596 -38L598 -36L599 -39zM602 -34L602 -34zM608 -32L608 -32z" id="河北省"/><path class="leaflet-interactive" stroke="#3388ff" stroke-opacity="0" stroke-width="3" stroke-linecap="round" stroke-linejoin="round" fill="#eee" fill-opacity="0.5" fill-rule="evenodd" d="M560 0L569 -3L569 -5L573 -4L578 -7L578 -15L581 -20L578 -28L584 -36L583 -35L583 -37L580 -40L581 -39L583 -41L582 -44L580 -42L579 -43L578 -41L572 -41L569 -38L569 -36L567 -36L563 -31L564 -30L561 -25L561 -7L559 0z" id="山西省"/><path class="leaflet-interactive" stroke="#3388ff" stroke-opacity="0" stroke-width="3" stroke-linecap="round" stroke-linejoin="round" fill="#eee" fill-opacity="0.5" fill-rule="evenodd" d="M485 -60L489 -51L487 -50L491 -43L494 -43L495 -45L496 -44L499 -46L501 -45L502 -41L499 -38L506 -34L508 -30L512 -29L513 -31L511 -32L517 -32L523 -35L524 -34L525 -32L520 -27L520 -23L522 -23L524 -20L534 -23L534 -29L539 -34L541 -32L538 -26L543 -25L547 -21L549 -21L552 -24L553 -28L559 -34L562 -33L564 -36L564 -34L566 -34L566 -36L568 -36L571 -41L573 -40L579 -42L581 -44L580 -49L584 -55L587 -50L590 -53L595 -53L597 -57L602 -58L604 -56L603 -55L605 -53L605 -49L610 -48L612 -56L615 -53L615 -51L619 -56L629 -60L633 -60L636 -63L633 -66L635 -66L634 -71L632 -73L629 -71L627 -73L627 -80L626 -83L624 -83L625 -86L627 -84L631 -84L633 -88L632 -91L633 -90L635 -92L633 -94L634 -93L632 -91L628 -97L631 -100L633 -100L633 -102L635 -102L639 -107L639 -105L641 -105L640 -106L642 -112L645 -113L644 -118L648 -124L649 -129L645 -134L643 -134L644 -133L641 -131L633 -131L630 -135L631 -140L627 -142L625 -140L622 -143L625 -148L621 -150L615 -145L615 -143L619 -143L619 -137L615 -135L614 -130L610 -124L611 -121L602 -115L596 -118L592 -110L591 -104L589 -103L592 -99L594 -101L598 -101L600 -99L602 -102L606 -102L613 -96L614 -92L612 -90L608 -92L600 -90L600 -88L597 -89L592 -82L588 -80L585 -81L578 -75L572 -78L568 -77L566 -73L569 -68L567 -65L565 -65L555 -57L542 -57L527 -51L527 -53L524 -52L513 -55L511 -58L495 -58L485 -60z" id="内蒙古自治区"/><path class="leaflet-interactive" stroke="#3388ff" stroke-opacity="0" stroke-width="3" stroke-linecap="round" stroke-linejoin="round" fill="#eee" fill-opacity="0.5" fill-rule="evenodd" d="M635 -37L639 -38L643 -43L647 -45L647 -49L645 -51L645 -55L642 -62L640 -60L640 -62L637 -65L635 -61L634 -62L631 -59L628 -60L625 -57L624 -58L619 -56L615 -52L612 -57L610 -55L611 -50L608 -45L612 -43L614 -39L616 -39L619 -42L619 -44L621 -44L620 -45L627 -44L626 -39L623 -38L622 -35L624 -33L621 -30L626 -31L625 -32L626 -31L629 -35L635 -37zM630 -33L629 -34L630 -33zM628 -33L628 -33zM630 -33L630 -33zM630 -32L630 -32zM632 -35L632 -35zM629 -33L629 -33zM619 -42L619 -42zM632 -34L632 -35zM633 -31L633 -32zM636 -37L636 -37z" id="辽宁省"/><path class="leaflet-interactive" stroke="#3388ff" stroke-opacity="0" stroke-width="3" stroke-linecap="round" stroke-linejoin="round" fill="#eee" fill-opacity="0.5" fill-rule="evenodd" d="M669 -57L671 -61L673 -61L675 -57L674 -60L676 -60L679 -64L676 -65L673 -70L665 -66L662 -73L661 -70L659 -70L657 -73L658 -74L656 -74L653 -79L650 -78L643 -82L640 -81L637 -84L638 -86L636 -88L633 -87L630 -84L631 -83L629 -85L625 -85L624 -83L626 -83L628 -71L632 -73L635 -68L635 -66L633 -66L640 -62L640 -60L642 -62L645 -55L645 -51L647 -49L647 -45L649 -45L653 -52L655 -52L655 -50L661 -49L662 -50L660 -54L666 -54L667 -57L669 -57z" id="吉林省"/><path class="leaflet-interactive" stroke="#3388ff" stroke-opacity="0" stroke-width="3" stroke-linecap="round" stroke-linejoin="round" fill="#eee" fill-opacity="0.5" fill-rule="evenodd" d="M635 -87L636 -88L638 -86L638 -82L643 -82L649 -78L652 -79L655 -77L654 -76L658 -74L657 -73L660 -70L660 -72L663 -73L665 -66L673 -70L674 -67L678 -65L679 -70L677 -76L683 -80L688 -77L689 -78L691 -84L694 -87L696 -95L695 -96L699 -100L697 -102L701 -106L697 -106L685 -100L678 -99L675 -103L676 -106L674 -110L672 -110L668 -115L667 -114L665 -116L662 -115L658 -117L658 -121L656 -123L657 -124L654 -129L654 -133L652 -135L652 -139L649 -145L645 -149L642 -148L637 -152L628 -152L624 -150L625 -147L621 -143L624 -142L624 -140L628 -142L630 -140L632 -131L641 -131L644 -134L647 -132L649 -128L644 -119L645 -114L641 -110L641 -104L640 -103L639 -106L628 -97L632 -91L634 -93L633 -94L635 -92L633 -90L632 -91L632 -89L635 -87z" id="黑龙江省"/><path class="leaflet-interactive" stroke="#3388ff" stroke-opacity="0" stroke-width="3" stroke-linecap="round" stroke-linejoin="round" fill="#eee" fill-opacity="0.5" fill-rule="evenodd" d="M620 24L621 26L626 26L626 24L623 21L621 21L620 24zM626 20L621 19L623 21L626 21zM625 22L624 21L625 22zM625 22L627 23L625 22zM624 21L624 21zM626 23L626 23zM625 23L626 23z" id="上海市"/><path class="leaflet-interactive" stroke="#3388ff" stroke-opacity="0" stroke-width="3" stroke-linecap="round" stroke-linejoin="round" fill="#eee" fill-opacity="0.5" fill-rule="evenodd" d="M599 0L596 -3L594 -1L604 7L603 10L604 9L606 13L608 13L608 11L610 13L609 15L608 14L606 16L609 23L610 22L618 26L621 23L621 19L626 20L625 17L623 17L623 15L620 14L620 10L617 3L613 1L610 -2L610 -4L604 2L603 -1L601 1L599 0z" id="江苏省"/><path class="leaflet-interactive" stroke="#3388ff" stroke-opacity="0" stroke-width="3" stroke-linecap="round" stroke-linejoin="round" fill="#eee" fill-opacity="0.5" fill-rule="evenodd" d="M606 42L608 42L608 47L611 48L613 46L613 48L617 48L617 50L619 45L621 45L620 44L624 42L624 36L626 36L626 32L620 24L618 26L613 23L612 27L611 26L611 28L608 29L608 33L604 36L606 42zM627 31L628 30L626 30L627 31zM627 30L627 30zM627 33L627 33zM628 26L629 26zM627 29L627 29zM628 29L628 29zM626 36L626 36zM628 32L629 31L628 32zM628 28L628 28zM625 39L625 39zM628 32L628 32zM625 37L625 37zM622 46L622 46zM626 26L627 27L626 26zM625 41L625 41zM627 33L627 33zM629 31L629 31zM629 27L629 27zM625 41L625 41zM626 30L626 30zM628 31L628 31zM625 31L625 31zM621 47L621 47zM626 36L626 36zM626 33L626 33zM626 30L626 30zM626 29L626 29zM627 31L627 31zM628 33L627 33zM621 45L621 45zM630 30L630 30zM628 29L628 29zM628 32L628 32zM630 26L630 26zM621 44L621 44zM621 44L621 44zM629 31L629 31zM631 26L631 26zM627 31L627 31zM626 31L626 31zM621 44L621 44zM629 31L629 31zM627 31L627 31z" id="浙江省"/><path class="leaflet-interactive" stroke="#3388ff" stroke-opacity="0" stroke-width="3" stroke-linecap="round" stroke-linejoin="round" fill="#eee" fill-opacity="0.5" fill-rule="evenodd" d="M595 4L596 5L593 6L591 4L589 5L590 6L588 10L586 10L586 12L589 15L590 14L592 17L588 21L592 25L591 28L593 32L595 32L595 30L597 34L599 31L605 35L608 32L608 30L611 29L613 24L611 22L608 23L608 21L605 18L607 14L610 13L608 11L608 13L606 13L605 10L603 10L604 7L595 0L593 0L595 4zM608 21L608 21zM596 33L596 33zM589 15L589 15z" id="安徽省"/><path class="leaflet-interactive" stroke="#3388ff" stroke-opacity="0" stroke-width="3" stroke-linecap="round" stroke-linejoin="round" fill="#eee" fill-opacity="0.5" fill-rule="evenodd" d="M609 63L608 62L610 62L610 60L614 60L612 60L614 55L613 53L615 53L614 54L617 49L612 46L610 48L608 46L608 42L606 42L598 46L599 49L595 52L595 56L592 59L591 64L595 66L596 65L597 70L599 72L604 68L604 66L607 66L607 64L609 63zM606 66L605 67L606 66zM612 62L612 62zM612 59L612 59zM615 56L614 55zM605 67L605 67zM614 52L614 52zM604 66L604 66zM614 56L614 56zM613 56L612 56zM615 54L615 53zM613 59L613 59zM613 53L614 53zM615 53L615 53zM617 51L616 51zM616 52L616 52zM613 53L613 53z" id="福建省"/><path class="leaflet-interactive" stroke="#3388ff" stroke-opacity="0" stroke-width="3" stroke-linecap="round" stroke-linejoin="round" fill="#eee" fill-opacity="0.5" fill-rule="evenodd" d="M604 35L599 32L597 34L595 30L595 32L589 32L585 34L586 35L582 35L580 37L582 41L578 47L580 49L580 55L582 55L580 60L585 61L581 65L582 66L586 66L588 64L590 66L591 65L593 57L595 56L594 55L598 47L606 42L603 36L604 35z" id="江西省"/><path class="leaflet-interactive" stroke="#3388ff" stroke-opacity="0" stroke-width="3" stroke-linecap="round" stroke-linejoin="round" fill="#eee" fill-opacity="0.5" fill-rule="evenodd" d="M594 0L594 -2L597 -3L599 1L603 -1L604 2L610 -4L611 -3L616 -10L615 -11L618 -10L620 -14L628 -16L630 -20L624 -20L619 -23L616 -22L613 -18L611 -18L609 -20L611 -23L608 -25L606 -24L604 -26L602 -26L600 -23L596 -23L588 -14L588 -8L592 -10L585 -4L590 0L594 0zM619 -24L619 -23zM619 -24L619 -24zM620 -13L620 -13zM619 -25L619 -25zM620 -27L620 -27zM616 -8L616 -8zM618 -24L618 -24zM619 -26L619 -26zM623 -21L623 -21zM623 -21L623 -21zM623 -21L623 -21zM589 -9L589 -9z" id="山东省"/><path class="leaflet-interactive" stroke="#3388ff" stroke-opacity="0" stroke-width="3" stroke-linecap="round" stroke-linejoin="round" fill="#eee" fill-opacity="0.5" fill-rule="evenodd" d="M573 15L579 15L581 19L588 22L589 21L592 17L591 14L587 14L586 11L591 4L593 6L596 5L595 2L593 2L593 0L589 0L587 -3L585 -3L592 -10L588 -8L589 -11L586 -10L580 -12L576 -5L570 -5L570 -3L560 1L564 8L563 9L567 14L571 16L573 15zM579 16L579 16z" id="河南省"/><path class="leaflet-interactive" stroke="#3388ff" stroke-opacity="0" stroke-width="3" stroke-linecap="round" stroke-linejoin="round" fill="#eee" fill-opacity="0.5" fill-rule="evenodd" d="M564 10L555 9L557 11L556 12L559 13L555 15L555 19L559 23L559 25L557 25L554 28L551 27L549 29L549 33L550 32L552 34L551 35L553 35L553 37L555 33L561 33L562 30L571 34L575 32L574 33L576 35L578 32L579 37L582 35L586 35L585 34L589 32L593 32L591 28L592 25L589 22L581 19L579 15L569 15L564 10zM553 27L553 27zM564 10L564 10zM573 15L573 15zM574 32L574 32z" id="湖北省"/><path class="leaflet-interactive" stroke="#3388ff" stroke-opacity="0" stroke-width="3" stroke-linecap="round" stroke-linejoin="round" fill="#eee" fill-opacity="0.5" fill-rule="evenodd" d="M569 65L570 62L574 64L576 60L580 60L582 56L580 56L581 53L580 48L578 48L578 46L582 42L578 36L578 32L575 35L574 32L572 34L568 31L567 32L561 30L560 33L558 32L554 34L553 39L555 47L553 47L551 50L555 50L554 55L557 58L558 55L558 57L560 57L563 54L565 58L566 57L563 63L564 64L566 62L567 65L569 64zM555 52L555 52z" id="湖南省"/><path class="leaflet-interactive" stroke="#3388ff" stroke-opacity="0" stroke-width="3" stroke-linecap="round" stroke-linejoin="round" fill="#eee" fill-opacity="0.5" fill-rule="evenodd" d="M578 80L579 77L581 79L590 76L593 77L598 72L598 68L596 66L597 65L591 63L590 66L588 64L586 66L582 66L581 65L585 61L584 60L576 60L574 64L570 62L568 68L569 69L566 72L566 76L556 84L557 93L561 91L559 87L562 85L563 86L575 81L576 82L578 80zM598 73L598 73zM574 83L573 84L574 83zM572 84L573 83L572 84zM582 82L582 81zM560 87L561 86L560 87zM572 84L572 84zM561 87L559 88L561 87zM579 82L579 82zM579 82L579 82zM576 83L576 82zM580 79L579 79zM582 82L582 82zM581 82L581 82zM596 89L597 89zM575 83L575 82zM560 90L560 90zM561 88L561 88zM561 92L561 92zM592 87L592 87zM591 88L592 88zM591 77L591 77zM591 77L591 77z" id="广东省"/><path class="leaflet-interactive" stroke="#3388ff" stroke-opacity="0" stroke-width="3" stroke-linecap="round" stroke-linejoin="round" fill="#eee" fill-opacity="0.5" fill-rule="evenodd" d="M555 57L552 58L552 60L551 59L546 62L543 62L542 59L541 62L540 61L536 63L536 65L532 63L526 65L530 67L530 69L536 69L536 71L533 74L535 76L540 77L538 79L539 82L546 85L556 85L558 82L560 82L560 80L562 80L562 78L566 76L566 72L569 69L569 65L567 65L566 62L564 64L563 63L566 58L564 54L559 57L555 57zM530 63L530 64zM553 88L553 88z" id="广西壮族自治区"/><path class="leaflet-interactive" stroke="#3388ff" stroke-opacity="0" stroke-width="3" stroke-linecap="round" stroke-linejoin="round" fill="#eee" fill-opacity="0.5" fill-rule="evenodd" d="M558 94L554 94L550 98L550 102L552 104L555 105L561 102L561 99L564 96L562 93L559 93zM570 188L570 188zM576 164L577 163zM569 188L569 188zM566 111L566 111zM602 123L602 122zM571 188L571 187zM568 117L568 116zM567 116L567 116zM580 167L584 165L580 166zM580 159L581 160L580 159zM580 160L580 160zM569 116L569 116zM568 115L568 115zM570 159L570 159zM579 168L580 168zM582 160L582 160zM570 112L571 112zM584 151L585 151zM591 154L591 154zM584 153L584 153zM579 166L580 166zM555 168L556 167L555 168zM593 159L594 159zM572 118L573 117L572 118zM572 159L573 159zM583 148L584 148zM571 116L572 116zM595 151L595 150zM571 112L571 112zM566 115L567 115zM589 153L589 153zM584 163L585 163zM583 164L584 163zM587 162L588 163L587 162zM580 164L580 164zM589 156L589 156zM595 158L595 158zM578 159L579 159zM584 147L585 147zM584 145L584 144zM586 148L586 148zM567 115L567 115zM580 159L580 160zM557 165L558 165zM596 144L596 144zM567 114L568 114zM572 115L572 115zM568 117L568 117zM580 153L580 152zM585 163L585 164zM595 154L595 154zM588 152L588 152zM597 150L597 150zM585 117L585 117zM592 157L592 157zM579 157L579 157zM584 167L585 167zM583 149L584 148zM602 148L602 148zM582 151L582 151zM584 144L585 144zM596 150L596 150zM560 164L561 163L560 164zM566 161L566 161zM588 161L588 161zM576 164L576 164zM581 147L581 147zM599 151L599 151zM582 118L582 117zM561 164L561 164zM589 162L589 161zM567 167L567 167zM567 160L568 161L567 160zM560 165L561 165zM571 159L571 159zM595 154L595 154zM569 164L569 164zM583 120L583 120zM586 147L586 147zM581 118L581 118zM592 152L592 152zM599 149L599 149zM585 169L585 169zM574 159L574 159zM567 166L567 166zM570 160L571 159zM572 177L572 177zM584 159L584 159zM585 164L586 164zM575 162L575 162zM578 170L578 170zM596 116L596 116zM600 152L600 152zM575 97L575 97zM583 118L583 117zM580 99L579 99zM573 181L573 181zM567 165L567 165zM571 159L571 159zM574 165L574 165zM572 178L573 178zM572 178L572 178zM588 130L588 130zM578 151L578 151zM580 121L580 121zM574 182L574 181zM572 181L573 181zM571 178L571 178zM570 113L570 113zM570 120L570 119zM573 179L573 179zM572 177L572 177zM576 174L576 174zM593 155L593 155zM586 167L586 167zM567 165L567 165zM580 119L580 119zM586 118L586 118zM596 158L596 158zM573 115L573 115zM565 94L565 94zM591 150L591 150zM599 149L599 149zM573 116L573 116zM591 150L591 150zM572 155L572 155zM584 120L584 120zM599 147L599 147zM602 147L602 147zM581 156L582 156zM585 154L585 155zM572 176L572 176z" id="海南省"/><path class="leaflet-interactive" stroke="#3388ff" stroke-opacity="0" stroke-width="3" stroke-linecap="round" stroke-linejoin="round" fill="#eee" fill-opacity="0.5" fill-rule="evenodd" d="M537 41L539 39L539 41L542 38L543 39L544 36L546 38L547 37L549 39L548 40L550 40L550 42L551 41L551 43L553 43L554 38L553 35L551 35L552 34L550 32L549 33L549 29L551 27L554 28L557 25L558 26L559 23L549 16L547 24L545 26L544 25L544 27L540 31L535 28L531 34L535 38L537 38L537 40zM553 27L553 27zM533 30L533 30zM553 27L553 27zM541 31L541 31z" id="重庆市"/><path class="leaflet-interactive" stroke="#3388ff" stroke-opacity="0" stroke-width="3" stroke-linecap="round" stroke-linejoin="round" fill="#eee" fill-opacity="0.5" fill-rule="evenodd" d="M508 49L507 50L509 54L513 56L518 54L517 49L524 40L526 40L525 41L527 45L529 45L530 43L531 46L535 46L537 44L534 43L533 40L537 40L537 38L535 38L531 34L535 28L540 31L544 27L543 26L547 24L549 16L546 17L543 14L537 14L535 12L532 12L530 14L527 13L525 11L525 7L521 5L520 6L518 2L514 4L515 7L512 10L511 7L510 10L507 9L508 12L506 14L502 14L501 11L499 13L496 10L494 10L492 4L489 3L486 6L488 8L486 12L492 17L492 19L495 22L493 22L496 31L496 41L497 42L499 38L502 42L501 43L503 45L505 44L505 46L508 49zM537 30L537 30zM541 30L541 30zM533 30L533 30z" id="四川省"/><path class="leaflet-interactive" stroke="#3388ff" stroke-opacity="0" stroke-width="3" stroke-linecap="round" stroke-linejoin="round" fill="#eee" fill-opacity="0.5" fill-rule="evenodd" d="M554 41L552 43L548 39L548 37L545 38L545 36L543 36L542 39L541 38L538 41L538 39L538 41L535 39L533 41L537 44L535 46L532 45L531 48L523 48L521 50L522 53L527 54L525 59L528 62L527 65L531 63L536 65L536 63L540 61L541 62L542 59L543 62L547 62L547 60L550 61L550 59L553 60L552 59L554 59L555 50L551 50L555 46L554 41zM555 51L555 51zM555 52L555 52z" id="贵州省"/><path class="leaflet-interactive" stroke="#3388ff" stroke-opacity="0" stroke-width="3" stroke-linecap="round" stroke-linejoin="round" fill="#eee" fill-opacity="0.5" fill-rule="evenodd" d="M531 46L530 43L528 45L526 44L526 40L522 41L523 42L521 42L521 45L517 49L518 54L512 56L509 53L506 46L503 45L499 39L497 41L498 42L496 42L496 36L495 39L493 39L494 42L493 43L491 41L490 44L491 47L492 46L494 48L494 58L492 58L488 63L487 69L495 69L493 69L493 71L495 75L496 74L495 75L498 76L496 80L501 81L503 85L507 83L507 85L511 87L511 79L515 77L518 79L520 77L528 77L529 74L533 74L536 71L536 69L530 69L531 68L526 65L528 63L526 59L528 54L526 52L522 52L524 48L531 48L531 46z" id="云南省"/><path class="leaflet-interactive" stroke="#3388ff" stroke-opacity="0" stroke-width="3" stroke-linecap="round" stroke-linejoin="round" fill="#eee" fill-opacity="0.5" fill-rule="evenodd" d="M442 -10L440 -12L430 -13L422 -11L421 -8L415 -8L410 -5L406 -5L403 -8L401 -8L397 -4L393 -6L389 -5L385 1L381 1L382 2L379 4L383 12L382 15L380 15L380 13L378 15L378 17L381 20L381 24L387 25L387 27L394 31L395 28L397 28L407 36L410 35L412 39L417 40L416 41L422 45L422 43L424 45L424 43L428 45L438 44L437 47L439 49L440 45L443 42L453 45L453 47L455 47L457 51L464 51L476 42L480 42L484 46L487 41L491 43L491 41L493 43L493 39L495 39L496 36L496 31L491 15L487 14L485 16L486 17L482 19L483 20L479 18L480 20L477 20L475 16L474 17L474 15L470 13L466 15L445 8L443 6L444 5L442 5L442 -10z" id="西藏自治区"/><path class="leaflet-interactive" stroke="#3388ff" stroke-opacity="0" stroke-width="3" stroke-linecap="round" stroke-linejoin="round" fill="#eee" fill-opacity="0.5" fill-rule="evenodd" d="M560 0L560 -16L562 -20L561 -25L565 -33L564 -36L561 -33L559 -35L559 -33L556 -32L556 -30L552 -27L551 -22L548 -21L544 -23L542 -21L542 -17L550 -13L550 -5L545 -5L544 -2L539 -3L537 1L539 1L537 5L538 6L534 8L534 12L532 11L533 13L541 13L546 17L549 16L554 20L556 18L555 15L559 13L556 12L557 11L555 9L562 10L564 8L561 5L562 4L560 0zM564 8L564 8zM535 13L535 13z" id="陕西省"/><path class="leaflet-interactive" stroke="#3388ff" stroke-opacity="0" stroke-width="3" stroke-linecap="round" stroke-linejoin="round" fill="#eee" fill-opacity="0.5" fill-rule="evenodd" d="M538 -8L537 -5L534 -6L534 -8L531 -9L531 -16L528 -19L527 -18L527 -20L520 -23L520 -27L525 -31L523 -35L518 -32L511 -32L512 -29L506 -31L506 -33L503 -36L498 -38L502 -41L502 -45L499 -46L494 -43L491 -43L491 -46L487 -49L489 -51L485 -60L480 -59L478 -57L479 -55L477 -52L473 -52L465 -44L461 -43L457 -33L461 -33L467 -29L468 -30L470 -27L476 -27L479 -25L482 -26L482 -28L484 -28L483 -31L485 -33L490 -30L494 -32L499 -27L501 -26L501 -28L508 -23L513 -22L512 -21L515 -18L518 -9L516 -9L517 -6L516 -7L512 -1L514 2L513 3L509 3L506 1L505 2L509 7L510 6L510 8L512 8L512 10L515 7L513 4L517 2L519 6L520 5L525 7L525 11L527 13L532 13L532 11L533 12L535 10L533 8L538 7L538 -3L545 -2L546 -5L550 -5L550 -13L539 -18L537 -14L540 -11L540 -9L538 -8zM535 -6L535 -6zM517 -12L517 -12zM535 -6L535 -6zM538 -8L538 -8z" id="甘肃省"/><path class="leaflet-interactive" stroke="#3388ff" stroke-opacity="0" stroke-width="3" stroke-linecap="round" stroke-linejoin="round" fill="#eee" fill-opacity="0.5" fill-rule="evenodd" d="M517 -12L515 -17L516 -18L512 -22L507 -23L505 -26L501 -28L502 -26L500 -27L495 -32L492 -32L490 -30L484 -33L484 -29L480 -25L477 -27L471 -27L469 -30L467 -29L462 -31L462 -33L445 -28L445 -26L447 -26L447 -22L451 -18L448 -15L450 -13L449 -10L444 -12L444 -10L441 -9L443 -9L441 -5L441 -2L443 -2L442 5L444 5L443 6L448 10L452 10L466 15L470 13L474 15L473 16L475 16L477 20L479 20L479 18L483 20L482 19L486 17L485 16L487 14L486 11L488 9L486 5L489 3L493 6L494 10L496 10L499 13L501 11L502 14L506 14L508 12L507 9L509 10L511 9L511 7L510 8L510 6L509 7L505 3L514 2L512 -2L514 -6L517 -7L517 -12z" id="青海省"/><path class="leaflet-interactive" stroke="#3388ff" stroke-opacity="0" stroke-width="3" stroke-linecap="round" stroke-linejoin="round" fill="#eee" fill-opacity="0.5" fill-rule="evenodd" d="M542 -18L544 -24L538 -26L541 -31L540 -34L538 -34L535 -31L533 -22L525 -20L527 -20L527 -18L528 -19L531 -16L531 -10L537 -4L537 -8L540 -9L540 -11L537 -14L539 -16L538 -17L542 -18zM535 -6L535 -6zM535 -6L535 -6z" id="宁夏回族自治区"/><path class="leaflet-interactive" stroke="#3388ff" stroke-opacity="0" stroke-width="3" stroke-linecap="round" stroke-linejoin="round" fill="#eee" fill-opacity="0.5" fill-rule="evenodd" d="M480 -59L474 -72L473 -71L461 -78L451 -78L448 -81L450 -86L450 -92L445 -100L439 -102L433 -107L433 -109L431 -109L432 -112L426 -112L426 -108L424 -106L420 -106L419 -104L419 -94L410 -93L405 -96L400 -84L402 -80L396 -80L387 -77L389 -75L389 -71L392 -64L389 -61L391 -61L388 -59L389 -56L385 -52L384 -53L374 -46L371 -47L367 -43L367 -41L363 -41L362 -43L358 -42L355 -39L354 -40L350 -33L353 -28L356 -29L358 -27L357 -26L359 -20L356 -19L356 -17L360 -17L364 -14L365 -9L372 -6L376 -6L377 -1L382 2L381 1L385 1L390 -6L396 -4L402 -8L404 -6L411 -5L415 -8L421 -8L422 -11L430 -13L449 -10L450 -13L448 -15L451 -18L447 -22L447 -26L445 -26L445 -28L457 -31L461 -43L466 -45L472 -52L474 -52L474 -50L479 -54L479 -59z" id="新疆维吾尔自治区"/><path class="leaflet-interactive" stroke="#3388ff" stroke-opacity="0" stroke-width="3" stroke-linecap="round" stroke-linejoin="round" fill="#eee" fill-opacity="0.5" fill-rule="evenodd" d="M617 79L618 82L620 82L620 78L623 75L626 63L624 61L618 66L615 71L616 78zM641 57L641 57zM634 58L634 58zM613 72L612 72zM636 57L636 57zM612 72L612 72zM612 73L612 73zM612 71L612 71zM626 59L627 59zM623 77L623 77zM623 81L624 81zM627 60L627 60zM611 74L612 74zM617 80L617 79z" id="台湾省"/><path class="leaflet-interactive" stroke="#3388ff" stroke-opacity="0" stroke-width="3" stroke-linecap="round" stroke-linejoin="round" fill="#eee" fill-opacity="0.5" fill-rule="evenodd" d="M581 79L580 80L583 79L581 79zM581 80L581 80zM582 79L582 79zM582 79L582 79zM582 79L582 79zM582 80L582 80zM582 79L582 79zM583 80L583 80zM582 80L582 80z" id="香港特别行政区"/><path class="leaflet-interactive" stroke="#3388ff" stroke-opacity="0" stroke-width="3" stroke-linecap="round" stroke-linejoin="round" fill="#eee" fill-opacity="0.5" fill-rule="evenodd" d="M578 81L578 81zM578 80L578 80z" id="澳门特别行政区"/><path class="leaflet-interactive" stroke="#3388ff" stroke-opacity="0" stroke-width="3" stroke-linecap="round" stroke-linejoin="round" fill="#eee" fill-opacity="0.5" fill-rule="evenodd" d="M629 73L631 66L629 73zM621 89L626 84L625 83L621 89zM612 106L615 100L612 106zM609 123L609 118L609 123zM607 146L606 148L609 141L608 143zM589 169L593 164L589 169zM571 190L568 191L574 189L572 190zM548 175L548 170L548 175zM559 145L558 146L560 140L559 144zM557 122L554 117L556 121z" id="100000_JD"/></g></svg>