<svg xmlns="http://www.w3.org/2000/svg" pointer-events="none" class="leaflet-zoom-animated" width="1140" height="632" viewBox="-95 -53 1140 632" style="transform: translate3d(-95px, -53px, 0px);"><g><path class="leaflet-interactive" stroke="black" stroke-opacity="1" stroke-width="2" stroke-linecap="round" stroke-linejoin="round" fill="#fff" fill-opacity="0.2" fill-rule="evenodd" d="M672 301L675 297L674 294L683 288L683 285L684 286L687 283L687 280L689 279L687 279L689 277L690 279L693 277L698 279L700 274L706 269L709 269L710 260L706 257L703 257L704 256L701 252L702 248L700 246L699 240L700 237L704 234L702 232L699 235L699 231L702 226L701 225L703 219L705 217L703 217L702 215L700 217L697 214L698 209L696 205L698 201L692 202L689 210L690 211L685 218L685 223L681 221L680 225L675 223L675 221L669 222L667 219L665 223L662 216L665 214L664 213L666 209L664 209L666 206L663 204L664 203L661 200L661 202L657 203L660 206L660 208L658 209L659 212L655 213L652 210L655 207L652 198L655 197L654 194L656 191L652 189L646 191L637 186L640 178L638 177L638 169L635 164L634 157L631 161L628 158L625 160L620 157L617 161L612 161L608 163L607 166L605 166L602 157L603 153L600 151L600 149L596 153L594 153L591 151L590 152L587 147L582 151L579 148L577 150L578 156L575 158L576 161L574 163L577 164L579 168L576 175L572 175L572 178L565 180L566 176L563 172L556 173L555 171L554 174L554 172L552 172L552 174L550 174L550 180L548 181L546 177L545 179L544 178L543 180L540 181L543 187L542 191L540 191L539 194L537 191L536 192L535 194L537 195L534 196L533 198L535 201L535 203L533 204L531 203L531 201L528 202L525 199L525 201L523 201L523 199L526 197L526 193L528 191L527 190L529 189L526 188L527 186L526 187L523 184L522 180L520 180L517 176L516 181L521 187L518 193L520 195L517 193L519 197L518 198L512 195L511 202L507 201L506 198L500 195L497 190L493 190L491 186L489 186L489 184L485 182L484 185L482 185L483 187L480 188L481 192L473 192L471 194L470 192L469 194L467 193L466 198L462 199L462 205L464 205L463 213L469 217L471 214L473 214L473 212L480 220L478 222L478 226L480 228L483 226L485 229L489 229L488 227L493 225L498 226L504 232L502 235L508 239L506 244L508 244L509 247L507 248L509 250L499 255L496 253L491 253L482 257L482 255L478 256L477 258L469 258L469 260L465 260L464 262L456 254L448 254L444 256L442 259L442 265L437 270L439 270L439 272L437 274L438 275L435 282L434 283L434 281L431 279L425 281L424 280L415 288L413 287L412 284L408 286L406 284L397 287L393 285L390 280L381 275L379 277L379 280L374 285L375 287L369 290L366 287L366 285L363 285L359 282L359 278L354 278L349 289L345 290L340 298L334 301L336 305L333 305L333 309L339 306L344 314L344 318L339 322L339 324L340 328L343 328L342 336L346 343L363 344L362 341L366 335L373 337L381 337L384 330L388 335L387 337L389 340L395 340L395 344L398 345L399 349L401 350L402 354L400 358L396 358L393 363L391 375L387 376L388 381L385 387L386 394L381 401L381 399L379 398L378 408L386 412L385 417L387 419L387 417L394 415L393 423L400 428L399 432L403 431L405 434L411 434L411 440L410 441L406 437L401 448L398 448L402 449L404 453L396 461L392 471L397 474L398 477L403 477L403 479L405 480L407 477L412 476L416 470L423 468L427 458L435 453L439 456L439 458L450 457L454 466L456 467L460 466L464 469L466 468L474 474L478 472L483 472L483 474L488 478L492 473L496 471L496 469L498 470L500 462L496 456L497 455L498 456L501 454L507 454L520 449L521 447L524 447L530 440L544 440L545 435L551 436L550 434L552 433L552 428L550 427L549 422L552 418L556 416L555 414L557 412L561 412L565 409L566 413L572 418L571 424L576 423L579 432L581 431L583 433L581 436L582 438L589 434L590 435L589 434L592 430L594 431L593 432L596 439L599 435L600 436L602 442L600 444L605 444L612 440L623 438L625 433L625 425L628 424L626 422L628 420L632 422L631 421L635 417L635 415L638 414L643 421L647 420L648 423L652 425L655 431L656 426L653 423L655 418L656 420L654 418L658 415L660 416L660 414L658 413L660 408L664 407L668 415L669 413L677 413L680 416L683 415L685 413L683 412L682 407L685 401L680 400L676 404L673 404L673 402L681 396L685 397L687 395L689 396L689 400L692 398L690 396L691 395L693 399L698 402L702 400L702 393L708 386L707 384L711 379L709 377L709 374L713 373L712 370L710 370L708 364L710 360L709 359L703 362L697 359L700 351L704 348L704 344L706 343L703 334L701 335L698 332L705 330L704 329L706 330L708 327L711 327L708 318L709 316L713 314L714 315L715 308L713 304L709 304L711 304L709 302L710 301L708 301L706 298L699 300L697 300L696 298L690 305L686 304L688 301L687 300L677 305L675 309L675 307L672 309L666 303L673 301zM428 459L429 458zM710 322L712 328L713 319L710 317L709 318L711 321zM717 327L714 328L717 329L717 327z" id="贵州省"/><path class="leaflet-interactive" stroke="#333" stroke-opacity="1" stroke-width="1" stroke-linecap="round" stroke-linejoin="round" stroke-dasharray="1,6" fill="#eee" fill-opacity="0.5" fill-rule="evenodd" d="M564 284L557 286L552 284L544 290L541 286L539 286L535 294L534 289L532 287L527 287L527 289L517 295L512 300L515 309L511 311L510 317L506 317L504 320L502 319L502 317L495 321L496 325L498 326L498 332L495 333L495 335L499 339L498 340L502 343L504 341L506 342L508 344L507 346L509 346L508 349L512 350L515 348L519 354L523 354L523 357L518 362L520 364L519 365L525 365L530 360L536 363L537 362L540 368L542 368L544 365L542 364L543 360L537 359L540 356L540 354L535 353L540 349L540 341L546 338L543 336L544 335L549 335L548 332L550 327L559 322L567 324L569 319L566 310L562 306L563 299L568 296L566 292L560 291L564 285z" id="贵阳市"/><path class="leaflet-interactive" stroke="#333" stroke-opacity="1" stroke-width="1" stroke-linecap="round" stroke-linejoin="round" stroke-dasharray="1,6" fill="#eee" fill-opacity="0.5" fill-rule="evenodd" d="M407 326L406 335L402 338L403 341L400 344L395 342L395 344L398 345L399 349L401 350L402 354L400 358L396 358L393 363L391 372L392 373L390 376L387 376L388 381L385 387L386 394L381 401L381 399L379 398L378 404L378 408L386 412L385 417L387 419L387 417L394 415L393 423L398 427L401 426L402 429L408 429L413 426L414 428L415 427L413 425L413 421L417 414L413 409L416 406L414 395L419 389L418 384L420 378L423 375L422 373L426 369L434 369L434 376L438 382L440 380L451 380L458 376L460 377L462 372L461 370L465 372L467 369L469 369L465 366L456 365L453 363L454 357L457 355L455 351L444 346L445 345L443 343L436 343L435 339L432 340L428 335L428 326L426 326L427 325L422 322L422 320L424 319L423 315L420 316L418 321L416 322L412 318L407 325zM403 324L403 321L399 319L396 328L400 329L402 325z" id="六盘水市"/><path class="leaflet-interactive" stroke="#333" stroke-opacity="1" stroke-width="1" stroke-linecap="round" stroke-linejoin="round" stroke-dasharray="1,6" fill="#eee" fill-opacity="0.5" fill-rule="evenodd" d="M620 157L617 161L612 161L608 163L607 166L605 166L602 157L603 153L600 151L600 149L596 153L594 153L591 151L590 152L587 147L582 151L579 148L577 150L578 156L575 158L576 161L574 163L577 164L579 168L576 175L572 175L572 178L565 180L566 176L563 172L556 173L555 171L554 174L554 172L552 172L552 174L550 174L550 180L548 181L546 177L545 179L544 178L543 180L540 181L543 187L542 191L540 191L539 194L537 191L536 192L535 194L537 195L534 196L533 198L535 201L535 203L533 204L531 203L531 201L528 202L525 199L525 201L523 201L523 199L526 197L526 193L528 191L527 190L529 189L526 188L527 186L526 187L523 184L522 180L520 180L517 176L516 181L521 187L518 193L520 195L517 193L519 197L518 198L512 195L511 202L507 201L506 198L500 195L497 190L493 190L491 186L489 186L489 184L485 182L484 185L482 185L483 187L480 188L481 192L473 192L471 194L470 192L469 194L467 193L466 198L462 199L462 205L464 205L463 213L469 217L471 214L473 214L473 212L480 220L478 222L478 226L480 228L483 226L485 229L489 229L488 227L493 225L498 226L504 232L502 235L508 239L506 244L508 244L509 247L507 248L509 250L499 255L496 253L491 253L488 255L487 260L494 262L493 264L498 269L502 269L502 267L505 265L507 266L508 275L515 272L520 275L521 272L522 273L526 271L533 279L533 282L531 283L535 294L539 286L541 286L543 290L545 290L551 284L557 286L564 284L569 275L577 279L575 283L577 283L578 285L579 282L583 282L581 291L584 295L584 292L586 294L586 291L592 290L594 292L601 294L600 295L602 296L605 295L604 297L606 297L607 299L608 296L609 297L618 292L615 287L612 286L612 284L610 285L610 287L609 284L604 286L601 284L600 281L603 281L600 276L601 274L603 274L605 269L609 269L609 264L612 259L612 254L608 248L611 237L607 232L607 234L605 234L601 231L603 224L607 221L606 212L611 209L615 210L613 207L614 204L616 204L614 205L617 207L617 210L619 208L620 206L618 201L620 199L618 194L619 192L624 190L623 189L627 186L629 180L629 177L628 178L624 174L624 169L620 163L620 158zM611 298L613 298L611 298z" id="遵义市"/><path class="leaflet-interactive" stroke="#333" stroke-opacity="1" stroke-width="1" stroke-linecap="round" stroke-linejoin="round" stroke-dasharray="1,6" fill="#eee" fill-opacity="0.5" fill-rule="evenodd" d="M439 382L439 385L443 389L447 390L447 394L454 399L455 402L459 402L467 406L469 412L471 412L473 419L480 423L483 421L481 417L486 413L485 410L486 409L486 411L489 413L492 410L493 414L491 415L495 418L495 420L499 419L501 425L503 424L508 427L514 427L514 425L512 424L514 422L512 419L518 407L515 404L513 406L506 404L507 401L503 403L502 402L502 393L505 390L506 387L504 386L507 383L503 379L500 380L502 378L502 375L505 374L503 371L505 367L504 365L502 365L506 363L507 365L509 365L510 361L518 362L523 357L523 355L518 353L515 349L508 349L508 344L504 341L500 343L498 340L499 339L496 336L497 339L495 346L491 348L485 350L485 345L482 344L477 347L473 347L472 349L469 348L461 351L460 354L454 357L453 363L455 365L456 364L465 366L469 369L465 371L462 370L460 377L459 376L451 380L440 380L438 382zM501 379L502 379z" id="安顺市"/><path class="leaflet-interactive" stroke="#333" stroke-opacity="1" stroke-width="1" stroke-linecap="round" stroke-linejoin="round" stroke-dasharray="1,6" fill="#eee" fill-opacity="0.5" fill-rule="evenodd" d="M457 355L466 349L471 349L472 347L476 347L481 344L485 345L485 350L495 345L497 339L495 333L498 332L498 327L495 321L501 317L504 320L506 317L508 318L512 310L515 309L512 303L512 300L515 298L515 296L527 289L527 287L533 287L531 284L533 280L528 272L521 272L520 275L516 274L515 272L508 275L507 266L504 265L505 266L502 267L502 269L498 269L493 264L494 262L487 261L487 255L482 257L482 255L478 256L477 258L469 258L469 260L465 260L464 262L456 254L451 253L443 257L442 265L437 270L439 270L439 272L437 274L437 279L434 283L433 280L428 279L425 281L424 280L415 288L413 287L412 284L408 286L406 284L397 287L393 285L391 281L387 278L381 275L379 277L379 280L374 285L375 287L369 290L375 291L378 294L378 301L380 303L379 304L381 305L381 310L383 308L389 310L389 312L391 313L395 312L400 316L399 319L403 321L403 324L407 326L412 318L416 322L422 315L424 318L422 322L427 324L426 325L428 326L428 335L431 338L431 340L435 339L438 344L443 343L445 347L455 350L456 354zM399 319L400 317L398 314L397 315L396 312L391 313L389 310L383 308L381 310L380 309L381 305L378 301L378 294L375 291L369 290L366 287L366 285L360 283L359 278L354 278L349 289L345 290L340 298L334 301L336 305L333 305L333 309L339 306L344 314L344 318L339 322L339 324L340 328L343 328L342 336L346 343L349 344L363 344L362 341L366 335L373 337L381 337L384 330L388 335L387 337L389 340L393 339L395 340L395 342L400 344L403 341L402 338L406 335L407 326L403 324L401 328L398 329L396 328L398 322z" id="毕节市"/><path class="leaflet-interactive" stroke="#333" stroke-opacity="1" stroke-width="1" stroke-linecap="round" stroke-linejoin="round" stroke-dasharray="1,6" fill="#eee" fill-opacity="0.5" fill-rule="evenodd" d="M672 301L675 297L674 294L683 288L683 285L684 286L687 283L687 280L689 279L687 279L689 277L690 279L693 277L698 279L700 274L706 269L709 269L710 260L706 257L703 257L704 256L701 252L702 248L700 246L699 240L700 237L704 234L702 232L699 235L699 231L702 226L701 225L703 219L705 217L703 217L702 215L700 217L697 214L698 209L696 205L698 201L692 202L689 210L690 211L685 218L685 223L681 221L680 225L675 223L675 221L669 222L667 219L665 223L662 216L665 214L664 213L666 209L664 209L666 206L663 204L664 203L661 200L661 202L657 203L660 206L660 208L658 209L659 212L655 213L652 210L655 207L652 198L655 197L654 194L656 191L652 189L646 191L637 186L640 178L638 177L638 169L635 164L635 158L634 157L631 161L628 158L625 160L620 157L620 162L624 168L624 173L628 178L629 177L629 180L627 182L626 187L623 189L624 190L618 193L618 196L620 198L618 201L620 206L618 210L616 209L617 207L615 205L614 206L616 205L615 204L613 205L615 209L607 210L607 221L604 224L603 223L601 231L606 234L607 232L611 236L608 248L612 253L612 259L610 261L609 268L605 269L603 274L600 275L603 281L600 281L601 284L603 284L604 286L613 284L613 287L621 285L626 289L629 283L635 284L643 279L646 280L655 272L660 272L664 275L669 275L668 273L674 274L675 272L678 274L677 277L679 276L682 279L680 283L677 282L673 284L672 283L670 285L671 289L667 294L672 300zM610 285L609 286L611 286z" id="铜仁市"/><path class="leaflet-interactive" stroke="#333" stroke-opacity="1" stroke-width="1" stroke-linecap="round" stroke-linejoin="round" stroke-dasharray="1,6" fill="#eee" fill-opacity="0.5" fill-rule="evenodd" d="M520 448L521 445L515 440L519 438L519 436L517 430L515 430L514 427L509 427L504 424L501 425L500 421L497 419L496 420L494 416L491 415L493 415L492 411L490 411L490 413L486 412L486 410L483 416L481 417L483 421L480 423L473 419L471 412L469 412L466 405L463 405L459 402L455 402L447 394L447 390L439 386L439 383L434 376L434 369L426 369L422 373L423 375L420 377L418 383L419 391L414 395L416 406L413 408L415 413L417 413L417 416L413 421L413 425L415 427L414 428L413 426L412 428L402 429L401 426L399 430L399 432L403 431L405 434L411 434L411 440L410 441L406 437L401 448L398 448L402 449L404 453L396 461L392 471L397 474L398 477L403 477L403 479L405 480L407 477L412 476L416 470L423 468L427 458L435 453L439 456L439 458L450 457L454 466L456 467L460 466L464 469L466 468L474 474L478 472L483 472L483 474L488 478L492 473L496 471L496 469L498 470L500 462L496 456L497 455L498 456L501 454L507 454L520 449zM428 459L429 458z" id="黔西南布依族苗族自治州"/><path class="leaflet-interactive" stroke="#333" stroke-opacity="1" stroke-width="1" stroke-linecap="round" stroke-linejoin="round" stroke-dasharray="1,6" fill="#eee" fill-opacity="0.5" fill-rule="evenodd" d="M615 287L618 291L617 293L612 295L613 299L604 298L605 296L602 296L600 295L601 294L595 292L594 294L596 300L594 303L595 304L593 304L592 306L594 310L590 316L593 319L593 321L595 321L595 319L598 320L598 322L600 322L600 324L595 330L599 338L598 340L594 340L591 337L589 339L589 337L583 342L581 342L581 340L579 340L576 343L573 342L572 345L574 346L570 350L576 354L584 351L585 356L589 355L592 361L600 358L601 362L599 369L604 374L606 371L608 373L609 372L613 377L615 375L623 376L625 374L627 379L630 376L631 379L629 380L630 381L628 385L626 384L624 388L625 389L621 395L622 404L626 403L627 409L630 408L634 412L633 413L635 415L638 414L643 421L647 420L648 423L652 425L655 431L656 426L653 423L655 418L656 420L654 418L658 415L660 416L660 414L658 413L660 408L664 407L668 415L669 413L677 413L680 416L685 413L682 409L685 401L680 400L678 403L673 404L675 400L677 400L681 396L685 397L687 395L689 396L689 400L692 398L690 396L691 395L693 399L698 402L702 400L702 393L708 386L707 384L711 379L709 377L709 374L713 373L712 370L710 370L708 364L710 360L709 359L703 362L697 359L700 351L704 348L704 344L706 343L703 334L701 335L698 332L705 330L704 329L706 330L708 327L711 327L708 318L709 316L713 314L714 315L715 308L713 304L709 304L711 304L709 302L710 301L708 301L706 298L699 300L697 300L696 298L690 305L686 304L688 301L687 300L677 305L675 309L675 307L672 309L666 303L673 301L671 297L667 295L671 289L670 285L672 283L680 283L682 279L679 276L677 277L678 274L675 272L674 274L669 273L669 275L663 275L661 272L654 272L653 275L651 275L647 280L643 279L636 284L630 283L626 289L621 285L616 286zM709 319L712 328L713 319L710 317L709 318zM717 327L714 328L717 329L717 327zM608 298L610 299L612 295L608 297z" id="黔东南苗族侗族自治州"/><path class="leaflet-interactive" stroke="#333" stroke-opacity="1" stroke-width="1" stroke-linecap="round" stroke-linejoin="round" stroke-dasharray="1,6" fill="#eee" fill-opacity="0.5" fill-rule="evenodd" d="M518 362L510 361L509 365L502 365L506 367L503 372L505 373L504 375L502 375L501 379L503 379L507 383L504 386L505 389L502 393L502 402L503 403L507 401L506 404L510 406L514 404L518 407L514 417L512 418L512 420L514 421L512 424L514 425L514 429L517 430L518 432L519 437L516 440L521 445L520 448L524 447L530 440L544 440L545 435L551 436L550 434L552 433L552 428L550 427L549 422L552 418L556 416L555 414L557 412L561 412L565 409L566 413L572 418L571 424L576 423L579 432L581 431L583 433L581 436L582 438L589 434L590 435L589 434L592 430L594 431L593 432L596 439L599 435L600 436L602 442L600 444L605 444L612 440L623 438L625 433L625 425L628 424L626 422L628 420L632 422L632 419L635 417L633 413L634 412L631 411L631 408L627 409L626 404L622 403L621 398L621 395L623 393L622 392L624 391L626 384L627 385L629 383L631 378L629 376L627 379L625 374L623 376L615 375L613 377L609 372L608 373L606 371L604 374L599 368L601 362L600 358L592 361L591 357L587 355L585 356L584 352L576 354L571 350L574 346L572 342L576 343L579 340L583 342L589 337L589 339L591 337L593 340L599 339L595 330L600 324L600 322L598 322L599 321L595 319L596 320L593 321L593 319L590 316L594 311L592 307L595 304L594 303L596 298L592 290L587 291L586 294L584 292L585 294L583 294L581 291L583 282L579 282L578 285L575 281L577 280L576 278L574 276L568 275L568 278L560 291L566 292L568 294L567 297L563 298L562 306L567 312L569 321L568 324L560 322L550 327L548 334L549 335L545 335L544 336L546 338L541 341L541 345L538 347L540 348L535 353L540 354L540 356L537 358L543 359L544 362L542 364L544 366L540 368L537 362L536 363L531 360L526 365L519 365L519 363zM501 379L501 380z" id="黔南布依族苗族自治州"/></g></svg>